<svg xmlns="http://www.w3.org/2000/svg" viewBox="0 0 432 121" role="img" aria-labelledby="title desc">
  <title id="title">Qualifi logo</title>
  <desc id="desc">Qualifi success through learning recognised worldwide logo</desc>
  <rect width="432" height="121" fill="#fff"/>
  <g transform="translate(3 4)">
    <circle cx="58" cy="54" r="49" fill="#fff" stroke="#8bad2f" stroke-width="3"/>
    <path d="M6 80c20 20 49 30 85 22" fill="none" stroke="#f07d24" stroke-width="7" stroke-linecap="round"/>
    <path d="M5 67c21 23 47 36 82 38" fill="none" stroke="#f1c22d" stroke-width="7" stroke-linecap="round"/>
    <path d="M6 53c20 28 45 46 78 54" fill="none" stroke="#149fa7" stroke-width="7" stroke-linecap="round"/>
    <path d="M10 37c16 27 38 48 64 62" fill="none" stroke="#e33d2f" stroke-width="7" stroke-linecap="round"/>
    <path d="M20 24c12 21 29 39 50 53" fill="none" stroke="#1d76bb" stroke-width="7" stroke-linecap="round"/>
    <path d="M34 14c11 17 25 31 43 43" fill="none" stroke="#8bad2f" stroke-width="7" stroke-linecap="round"/>
    <path d="M7 89c18 22 47 31 83 20" fill="none" stroke="#1d76bb" stroke-width="4" stroke-linecap="round"/>
    <path d="M27 105c20 10 42 13 66 5" fill="none" stroke="#f07d24" stroke-width="4" stroke-linecap="round"/>
  </g>
  <g transform="translate(110 13)">
    <text x="0" y="56" fill="#231f20" font-family="Arial, Helvetica, sans-serif" font-size="55" font-weight="400" letter-spacing="5">QUALIFI</text>
    <path d="M108 66c22 21 61 18 91-9" fill="none" stroke="#e4aa2e" stroke-width="6" stroke-linecap="round"/>
    <text x="25" y="88" fill="#231f20" font-family="Arial, Helvetica, sans-serif" font-size="13" font-weight="500" letter-spacing="4">SUCCESS THROUGH LEARNING</text>
    <text x="48" y="107" fill="#231f20" font-family="Arial, Helvetica, sans-serif" font-size="13" font-weight="500" letter-spacing="4">RECOGNISED WORLDWIDE</text>
  </g>
</svg>
